<?xml version="1.0" encoding="UTF-8"?>
<svg xmlns="http://www.w3.org/2000/svg" xmlns:xlink="http://www.w3.org/1999/xlink" width="55pt" height="19pt" viewBox="0 0 55 19" version="1.1">
<g id="surface1">
<path style=" stroke:none;fill-rule:nonzero;fill:rgb(85.098039%,41.960784%,15.294118%);fill-opacity:1;" d="M 1.390625 0.222656 L 5.773438 0.21875 L 11.390625 5.914062 L 11.390625 1.546875 L 12.625 0.21875 L 17.320312 0.21875 L 18.335938 1.238281 L 18.320312 17.78125 L 17.167969 18.875 L 12.546875 18.875 L 6.832031 12.996094 L 6.851562 17.703125 L 5.695312 18.875 L 1.230469 18.875 L 0 17.625 L 0 1.523438 Z M 1.390625 0.222656 "/>
<path style=" stroke:none;fill-rule:nonzero;fill:rgb(85.098039%,41.960784%,15.294118%);fill-opacity:1;" d="M 19.226562 0.222656 L 23.949219 0.222656 L 25.03125 1.515625 L 25.03125 3.769531 L 27.277344 6.023438 L 29.523438 3.847656 L 29.523438 1.59375 L 30.761719 0.347656 L 35.328125 0.347656 L 36.488281 1.671875 L 36.488281 8.585938 L 30.761719 14.339844 L 30.761719 17.449219 L 29.597656 18.847656 L 24.953125 18.847656 L 23.792969 17.527344 L 23.792969 14.109375 L 18.359375 8.554688 L 18.347656 1.238281 Z M 19.226562 0.222656 "/>
<path style=" stroke:none;fill-rule:nonzero;fill:rgb(85.098039%,41.960784%,15.294118%);fill-opacity:1;" d="M 36.488281 3.792969 L 40.03125 0.296875 L 51.429688 0.296875 L 54.898438 3.828125 L 54.898438 7.203125 L 53.585938 8.378906 L 48.042969 8.378906 L 48.042969 7.203125 L 43.421875 7.203125 L 43.421875 11.753906 L 47.964844 11.753906 L 47.964844 10.8125 L 53.664062 10.8125 L 54.921875 12.144531 L 54.886719 15.125 L 51.199219 18.890625 L 40.03125 18.890625 L 36.488281 15.359375 Z M 36.488281 3.792969 "/>
<path style=" stroke:none;fill-rule:nonzero;fill:rgb(85.098039%,41.960784%,15.294118%);fill-opacity:1;" d="M 54.113281 1.046875 C 54.226562 1.046875 54.328125 1.035156 54.328125 0.894531 C 54.328125 0.777344 54.21875 0.765625 54.125 0.765625 L 53.945312 0.765625 L 53.945312 1.046875 Z M 53.941406 1.597656 L 53.792969 1.597656 L 53.792969 0.625 L 54.140625 0.625 C 54.363281 0.625 54.476562 0.707031 54.476562 0.90625 C 54.476562 1.082031 54.375 1.15625 54.238281 1.171875 L 54.496094 1.597656 L 54.324219 1.597656 L 54.085938 1.183594 L 53.941406 1.183594 Z M 54.105469 0.367188 C 53.75 0.367188 53.464844 0.667969 53.464844 1.09375 C 53.464844 1.492188 53.707031 1.820312 54.105469 1.820312 C 54.464844 1.820312 54.742188 1.523438 54.742188 1.09375 C 54.742188 0.664062 54.464844 0.367188 54.105469 0.367188 Z M 54.105469 1.972656 C 53.628906 1.972656 53.289062 1.59375 53.289062 1.09375 C 53.289062 0.867188 53.375 0.644531 53.527344 0.484375 C 53.679688 0.324219 53.886719 0.230469 54.105469 0.230469 C 54.320312 0.230469 54.53125 0.324219 54.683594 0.484375 C 54.835938 0.644531 54.921875 0.867188 54.921875 1.09375 C 54.925781 1.207031 54.90625 1.324219 54.867188 1.429688 C 54.828125 1.539062 54.769531 1.636719 54.691406 1.71875 C 54.617188 1.800781 54.527344 1.863281 54.425781 1.910156 C 54.324219 1.953125 54.214844 1.976562 54.105469 1.972656 "/>
</g>
</svg>
